ffmpeg version 4.4.2-0ubuntu0.22.04.1 Copyright (c) 2000-2021 the FFmpeg developers
  built with gcc 11 (Ubuntu 11.2.0-19ubuntu1)
  configuration: --prefix=/usr --extra-version=0ubuntu0.22.04.1 --toolchain=hardened --libdir=/usr/lib/x86_64-linux-gnu --incdir=/usr/include/x86_64-linux-gnu --arch=amd64 --enable-gpl --disable-stripping --enable-gnutls --enable-ladspa --enable-libaom --enable-libass --enable-libbluray --enable-libbs2b --enable-libcaca --enable-libcdio --enable-libcodec2 --enable-libdav1d --enable-libflite --enable-libfontconfig --enable-libfreetype --enable-libfribidi --enable-libgme --enable-libgsm --enable-libjack --enable-libmp3lame --enable-libmysofa --enable-libopenjpeg --enable-libopenmpt --enable-libopus --enable-libpulse --enable-librabbitmq --enable-librubberband --enable-libshine --enable-libsnappy --enable-libsoxr --enable-libspeex --enable-libsrt --enable-libssh --enable-libtheora --enable-libtwolame --enable-libvidstab --enable-libvorbis --enable-libvpx --enable-libwebp --enable-libx265 --enable-libxml2 --enable-libxvid --enable-libzimg --enable-libzmq --enable-libzvbi --enable-lv2 --enable-omx --enable-openal --enable-opencl --enable-opengl --enable-sdl2 --enable-pocketsphinx --enable-librsvg --enable-libmfx --enable-libdc1394 --enable-libdrm --enable-libiec61883 --enable-chromaprint --enable-frei0r --enable-libx264 --enable-shared
  libavutil      56. 70.100 / 56. 70.100
  libavcodec     58.134.100 / 58.134.100
  libavformat    58. 76.100 / 58. 76.100
  libavdevice    58. 13.100 / 58. 13.100
  libavfilter     7.110.100 /  7.110.100
  libswscale      5.  9.100 /  5.  9.100
  libswresample   3.  9.100 /  3.  9.100
  libpostproc    55.  9.100 / 55.  9.100
Input #0, flv, from '/storage/32426326/20250606/32426326-20250606-152228-558.flv':
  Metadata:
    displayHeight   : 1080
    profile         : 
    Rawdata         : 
    fps             : 60
    level           : 
    encoder         : obs-output module (libobs version 31.0.2)
    displayWidth    : 1920
    cdn_ip          : 192.168.252.4
    Title           : 技术主播没有GG
    Artist          : 蓝音BuBuLine (32426326)
    Comment         : mikufans直播间 32426326 的直播录像
                    : 主播名: 蓝音BuBuLine
                    : 直播标题: 技术主播没有GG
                    : 直播分区: 单机游戏·主机游戏
                    : 录制时间: 2025-06-06T15:22:28.5681312+00:00
                    : 直播服务器:
                    : d1--ov-gotcha07.bilivideo.com [156.59.188.244]
                    : 
                    : 使用 mikufans录播姬 录制 https://rec.danmuji.org
                    : 录播姬版本: 2.11.0
    RecordedBy      : BililiveRecorder mikufans录播姬
    RecordedFrom    : d1--ov-gotcha07.bilivideo.com
    StreamServers   : d1--ov-gotcha07.bilivideo.com [156.59.188.244]
    RecorderVersion : 2.11.0+Branch.tags-v2.11.0.Sha.d32ebb97483b1ae77acfc6dbcfef17bd64913ccd
    StartTime       : Fri, 06 Jun 2025 15:22:28 +0000
    RoomId          : 32426326
    ShortId         : 0
    Name            : 蓝音BuBuLine
    StreamTitle     : 技术主播没有GG
    AreaNameParent  : 单机游戏
    AreaNameChild   : 主机游戏
  Duration: 06:36:48.55, start: 0.035000, bitrate: 6512 kb/s
  Stream #0:0: Video: h264 (High), yuv420p(tv, bt709, progressive), 1920x1080 [SAR 1:1 DAR 16:9], 8192 kb/s, 60 fps, 60 tbr, 1k tbn, 120 tbc
  Stream #0:1: Audio: aac (LC), 48000 Hz, stereo, fltp, 131 kb/s
Stream mapping:
  Stream #0:0 -> #0:0 (h264 (native) -> png (native))
Press [q] to stop, [?] for help
Output #0, image2, to '/storage/32426326/20250606/32426326-20250606-152228-558.all.thumb.png':
  Metadata:
    displayHeight   : 1080
    profile         : 
    Rawdata         : 
    fps             : 60
    level           : 
    AreaNameChild   : 主机游戏
    displayWidth    : 1920
    cdn_ip          : 192.168.252.4
    Title           : 技术主播没有GG
    Artist          : 蓝音BuBuLine (32426326)
    Comment         : mikufans直播间 32426326 的直播录像
                    : 主播名: 蓝音BuBuLine
                    : 直播标题: 技术主播没有GG
                    : 直播分区: 单机游戏·主机游戏
                    : 录制时间: 2025-06-06T15:22:28.5681312+00:00
                    : 直播服务器:
                    : d1--ov-gotcha07.bilivideo.com [156.59.188.244]
                    : 
                    : 使用 mikufans录播姬 录制 https://rec.danmuji.org
                    : 录播姬版本: 2.11.0
    RecordedBy      : BililiveRecorder mikufans录播姬
    RecordedFrom    : d1--ov-gotcha07.bilivideo.com
    StreamServers   : d1--ov-gotcha07.bilivideo.com [156.59.188.244]
    RecorderVersion : 2.11.0+Branch.tags-v2.11.0.Sha.d32ebb97483b1ae77acfc6dbcfef17bd64913ccd
    StartTime       : Fri, 06 Jun 2025 15:22:28 +0000
    RoomId          : 32426326
    ShortId         : 0
    Name            : 蓝音BuBuLine
    StreamTitle     : 技术主播没有GG
    AreaNameParent  : 单机游戏
    encoder         : Lavf58.76.100
  Stream #0:0: Video: png, rgb24(pc, gbr/bt709/bt709, progressive), 1920x1080 [SAR 1:1 DAR 16:9], q=2-31, 200 kb/s, 60 fps, 60 tbn
    Metadata:
      encoder         : Lavc58.134.100 png
frame=    1 fps=0.0 q=0.0 size=N/A time=00:00:00.00 bitrate=N/A speed=   0x    frame=    1 fps=0.0 q=-0.0 Lsize=N/A time=00:00:00.01 bitrate=N/A speed=0.0885x    
video:181kB audio:0kB subtitle:0kB other streams:0kB global headers:0kB muxing overhead: unknown
ffmpeg version 4.4.2-0ubuntu0.22.04.1 Copyright (c) 2000-2021 the FFmpeg developers
  built with gcc 11 (Ubuntu 11.2.0-19ubuntu1)
  configuration: --prefix=/usr --extra-version=0ubuntu0.22.04.1 --toolchain=hardened --libdir=/usr/lib/x86_64-linux-gnu --incdir=/usr/include/x86_64-linux-gnu --arch=amd64 --enable-gpl --disable-stripping --enable-gnutls --enable-ladspa --enable-libaom --enable-libass --enable-libbluray --enable-libbs2b --enable-libcaca --enable-libcdio --enable-libcodec2 --enable-libdav1d --enable-libflite --enable-libfontconfig --enable-libfreetype --enable-libfribidi --enable-libgme --enable-libgsm --enable-libjack --enable-libmp3lame --enable-libmysofa --enable-libopenjpeg --enable-libopenmpt --enable-libopus --enable-libpulse --enable-librabbitmq --enable-librubberband --enable-libshine --enable-libsnappy --enable-libsoxr --enable-libspeex --enable-libsrt --enable-libssh --enable-libtheora --enable-libtwolame --enable-libvidstab --enable-libvorbis --enable-libvpx --enable-libwebp --enable-libx265 --enable-libxml2 --enable-libxvid --enable-libzimg --enable-libzmq --enable-libzvbi --enable-lv2 --enable-omx --enable-openal --enable-opencl --enable-opengl --enable-sdl2 --enable-pocketsphinx --enable-librsvg --enable-libmfx --enable-libdc1394 --enable-libdrm --enable-libiec61883 --enable-chromaprint --enable-frei0r --enable-libx264 --enable-shared
  libavutil      56. 70.100 / 56. 70.100
  libavcodec     58.134.100 / 58.134.100
  libavformat    58. 76.100 / 58. 76.100
  libavdevice    58. 13.100 / 58. 13.100
  libavfilter     7.110.100 /  7.110.100
  libswscale      5.  9.100 /  5.  9.100
  libswresample   3.  9.100 /  3.  9.100
  libpostproc    55.  9.100 / 55.  9.100
[flv @ 0x558653cbafc0] Auto-inserting h264_mp4toannexb bitstream filter
Input #0, concat, from '/storage/32426326/20250606/32426326-20250606-152228-558.all.concat.txt':
  Duration: N/A, start: 0.000000, bitrate: 8323 kb/s
  Stream #0:0: Video: h264 (High), yuv420p(tv, bt709, progressive), 1920x1080 [SAR 1:1 DAR 16:9], 8192 kb/s, 60 fps, 60 tbr, 1k tbn, 120 tbc
  Stream #0:1: Audio: aac (LC), 48000 Hz, stereo, fltp, 131 kb/s
Output #0, flv, to '/storage/32426326/20250606/32426326-20250606-152228-558.all.flv':
  Metadata:
    encoder         : Lavf58.76.100
  Stream #0:0: Video: h264 (High) ([7][0][0][0] / 0x0007), yuv420p(tv, bt709, progressive), 1920x1080 [SAR 1:1 DAR 16:9], q=2-31, 8192 kb/s, 60 fps, 60 tbr, 1k tbn, 1k tbc
  Stream #0:1: Audio: aac (LC) ([10][0][0][0] / 0x000A), 48000 Hz, stereo, fltp, 131 kb/s
Stream mapping:
  Stream #0:0 -> #0:0 (copy)
  Stream #0:1 -> #0:1 (copy)
Press [q] to stop, [?] for help
frame=    1 fps=0.0 q=-1.0 size=       0kB time=00:00:00.00 bitrate=N/A speed=N/A    frame= 6336 fps=0.0 q=-1.0 size=   34048kB time=00:01:45.75 bitrate=2637.5kbits/s speed= 211x    frame=11324 fps=11321 q=-1.0 size=   70912kB time=00:03:08.88 bitrate=3075.4kbits/s speed= 189x    frame=13865 fps=9241 q=-1.0 size=  111872kB time=00:03:51.23 bitrate=3963.3kbits/s speed= 154x    frame=16177 fps=8087 q=-1.0 size=  150272kB time=00:04:29.76 bitrate=4563.4kbits/s speed= 135x    frame=18797 fps=7517 q=-1.0 size=  193792kB time=00:05:13.43 bitrate=5065.1kbits/s speed= 125x    frame=21346 fps=7114 q=-1.0 size=  236032kB time=00:05:55.91 bitrate=5432.7kbits/s speed= 119x    frame=23730 fps=6778 q=-1.0 size=  275456kB time=00:06:35.65 bitrate=5703.3kbits/s speed= 113x    frame=26463 fps=6614 q=-1.0 size=  319488kB time=00:07:21.19 bitrate=5932.1kbits/s speed= 110x    frame=29095 fps=6462 q=-1.0 size=  363264kB time=00:08:05.06 bitrate=6135.0kbits/s speed= 108x    frame=31325 fps=6262 q=-1.0 size=  400384kB time=00:08:42.23 bitrate=6280.7kbits/s speed= 104x    frame=33920 fps=6164 q=-1.0 size=  443392kB time=00:09:25.48 bitrate=6423.3kbits/s speed= 103x    frame=36451 fps=6072 q=-1.0 size=  485120kB time=00:10:07.66 bitrate=6540.0kbits/s speed= 101x    frame=39057 fps=6006 q=-1.0 size=  528128kB time=00:10:51.09 bitrate=6644.8kbits/s speed= 100x    frame=41563 fps=5934 q=-1.0 size=  569856kB time=00:11:32.86 bitrate=6737.6kbits/s speed=98.9x    frame=43926 fps=5853 q=-1.0 size=  609024kB time=00:12:12.24 bitrate=6813.4kbits/s speed=97.6x    frame=46273 fps=5780 q=-1.0 size=  647936kB time=00:12:51.36 bitrate=6881.2kbits/s speed=96.3x    frame=48783 fps=5735 q=-1.0 size=  689408kB time=00:13:33.20 bitrate=6944.9kbits/s speed=95.6x    frame=51053 fps=5668 q=-1.0 size=  727040kB time=00:14:11.03 bitrate=6998.5kbits/s speed=94.5x    frame=53521 fps=5630 q=-1.0 size=  767744kB time=00:14:52.16 bitrate=7049.6kbits/s speed=93.8x    frame=55890 fps=5585 q=-1.0 size=  807168kB time=00:15:31.64 bitrate=7097.5kbits/s speed=93.1x    frame=58345 fps=5553 q=-1.0 size=  846592kB time=00:16:12.56 bitrate=7130.9kbits/s speed=92.6x    frame=60937 fps=5536 q=-1.0 size=  889600kB time=00:16:55.76 bitrate=7174.5kbits/s speed=92.3x    frame=63316 fps=5502 q=-1.0 size=  929024kB time=00:17:35.42 bitrate=7210.9kbits/s speed=91.7x    frame=65745 fps=5475 q=-1.0 size=  969472kB time=00:18:15.89 bitrate=7247.0kbits/s speed=91.3x    frame=68378 fps=5467 q=-1.0 size= 1012992kB time=00:18:59.78 bitrate=7280.7kbits/s speed=91.1x    frame=70546 fps=5423 q=-1.0 size= 1049088kB time=00:19:35.91 bitrate=7308.4kbits/s speed=90.4x    frame=72987 fps=5403 q=-1.0 size= 1089280kB time=00:20:16.60 bitrate=7334.7kbits/s speed=90.1x    frame=75507 fps=5390 q=-1.0 size= 1131008kB time=00:20:58.60 bitrate=7361.5kbits/s speed=89.8x    frame=78040 fps=5379 q=-1.0 size= 1172992kB time=00:21:40.82 bitrate=7387.0kbits/s speed=89.7x    frame=80623 fps=5371 q=-1.0 size= 1215744kB time=00:22:23.86 bitrate=7411.0kbits/s speed=89.5x    frame=83158 fps=5361 q=-1.0 size= 1257728kB time=00:23:06.11 bitrate=7433.2kbits/s speed=89.4x    frame=85724 fps=5354 q=-1.0 size= 1300224kB time=00:23:48.88 bitrate=7454.3kbits/s speed=89.2x    frame=88347 fps=5351 q=-1.0 size= 1343744kB time=00:24:32.59 bitrate=7475.2kbits/s speed=89.2x    frame=90687 fps=5331 q=-1.0 size= 1382400kB time=00:25:11.59 bitrate=7491.8kbits/s speed=88.9x    frame=93290 fps=5327 q=-1.0 size= 1425408kB time=00:25:54.99 bitrate=7509.3kbits/s speed=88.8x    frame=95830 fps=5320 q=-1.0 size= 1467392kB time=00:26:37.31 bitrate=7525.7kbits/s speed=88.7x    frame=98191 fps=5304 q=-1.0 size= 1506816kB time=00:27:16.67 bitrate=7542.0kbits/s speed=88.4x    frame=100986 fps=5312 q=-1.0 size= 1549312kB time=00:28:03.24 bitrate=7540.2kbits/s speed=88.5x    frame=103606 fps=5310 q=-1.0 size= 1592832kB time=00:28:46.91 bitrate=7555.9kbits/s speed=88.5x    frame=105883 fps=5291 q=-1.0 size= 1630464kB time=00:29:24.86 bitrate=7568.1kbits/s speed=88.2x    frame=108498 fps=5289 q=-1.0 size= 1673984kB time=00:30:08.44 bitrate=7582.9kbits/s speed=88.2x    frame=110915 fps=5278 q=-1.0 size= 1714176kB time=00:30:48.73 bitrate=7595.8kbits/s speed=  88x    frame=113480 fps=5275 q=-1.0 size= 1756416kB time=00:31:31.48 bitrate=7607.0kbits/s speed=87.9x    frame=115972 fps=5268 q=-1.0 size= 1797888kB time=00:32:13.01 bitrate=7619.3kbits/s speed=87.8x    frame=118408 fps=5259 q=-1.0 size= 1838080kB time=00:32:53.61 bitrate=7629.4kbits/s speed=87.7x    frame=120989 fps=5257 q=-1.0 size= 1880832kB time=00:33:36.64 bitrate=7640.3kbits/s speed=87.6x    frame=123585 fps=5255 q=-1.0 size= 1923840kB time=00:34:19.90 bitrate=7650.9kbits/s speed=87.6x    frame=126065 fps=5249 q=-1.0 size= 1964800kB time=00:35:01.23 bitrate=7660.1kbits/s speed=87.5x    frame=128645 fps=5247 q=-1.0 size= 2007552kB time=00:35:44.23 bitrate=7669.8kbits/s speed=87.5x    frame=131071 fps=5239 q=-1.0 size= 2047744kB time=00:36:24.66 bitrate=7678.6kbits/s speed=87.3x    frame=133455 fps=5230 q=-1.0 size= 2087424kB time=00:37:04.40 bitrate=7687.5kbits/s speed=87.2x    frame=138039 fps=5306 q=-1.0 size= 2126080kB time=00:38:20.79 bitrate=7569.9kbits/s speed=88.4x    frame=141129 fps=5322 q=-1.0 size= 2164736kB time=00:39:12.30 bitrate=7538.8kbits/s speed=88.7x    frame=143812 fps=5323 q=-1.0 size= 2203648kB time=00:39:57.01 bitrate=7531.2kbits/s speed=88.7x    frame=147725 fps=5368 q=-1.0 size= 2245376kB time=00:41:02.23 bitrate=7470.5kbits/s speed=89.5x    frame=149933 fps=5351 q=-1.0 size= 2281984kB time=00:41:39.03 bitrate=7480.5kbits/s speed=89.2x    frame=153236 fps=5373 q=-1.0 size= 2321920kB time=00:42:34.09 bitrate=7447.3kbits/s speed=89.6x    frame=158322 fps=5456 q=-1.0 size= 2361856kB time=00:43:58.85 bitrate=7332.1kbits/s speed=90.9x    frame=162309 fps=5498 q=-1.0 size= 2397952kB time=00:45:05.29 bitrate=7261.3kbits/s speed=91.6x    frame=166664 fps=5552 q=-1.0 size= 2437888kB time=00:46:17.88 bitrate=7189.4kbits/s speed=92.5x    frame=171131 fps=5607 q=-1.0 size= 2478592kB time=00:47:32.33 bitrate=7118.6kbits/s speed=93.5x    frame=176013 fps=5674 q=-1.0 size= 2518784kB time=00:48:53.70 bitrate=7033.4kbits/s speed=94.6x    frame=179037 fps=5680 q=-1.0 size= 2562816kB time=00:49:44.11 bitrate=7035.5kbits/s speed=94.7x    frame=182963 fps=5714 q=-1.0 size= 2603776kB time=00:50:49.54 bitrate=6994.5kbits/s speed=95.2x    frame=186510 fps=5735 q=-1.0 size= 2646528kB time=00:51:48.65 bitrate=6974.2kbits/s speed=95.6x    frame=190898 fps=5781 q=-1.0 size= 2689024kB time=00:53:01.78 bitrate=6923.3kbits/s speed=96.4x    frame=195659 fps=5837 q=-1.0 size= 2730240kB time=00:54:21.14 bitrate=6858.4kbits/s speed=97.3x    frame=199636 fps=5868 q=-1.0 size= 2771712kB time=00:55:27.42 bitrate=6823.8kbits/s speed=97.8x    frame=203950 fps=5908 q=-1.0 size= 2813184kB time=00:56:39.32 bitrate=6779.5kbits/s speed=98.5x    frame=208237 fps=5946 q=-1.0 size= 2849536kB time=00:57:50.76 bitrate=6725.7kbits/s speed=99.1x    frame=211574 fps=5956 q=-1.0 size= 2889472kB time=00:58:46.38 bitrate=6712.4kbits/s speed=99.3x    frame=214836 fps=5964 q=-1.0 size= 2928640kB time=00:59:40.74 bitrate=6700.1kbits/s speed=99.4x    frame=217202 fps=5947 q=-1.0 size= 2967040kB time=01:00:20.18 bitrate=6714.0kbits/s speed=99.1x    frame=221263 fps=5977 q=-1.0 size= 3007744kB time=01:01:27.87 bitrate=6681.2kbits/s speed=99.6x    frame=224215 fps=5976 q=-1.0 size= 3047424kB time=01:02:17.06 bitrate=6680.2kbits/s speed=99.6x    frame=227827 fps=5992 q=-1.0 size= 3086336kB time=01:03:17.27 bitrate=6658.3kbits/s speed=99.9x    frame=231109 fps=5999 q=-1.0 size= 3128576kB time=01:04:11.97 bitrate=6653.6kbits/s speed= 100x    frame=234025 fps=5997 q=-1.0 size= 3167488kB time=01:05:00.56 bitrate=6652.4kbits/s speed= 100x    frame=237487 fps=6009 q=-1.0 size= 3210752kB time=01:05:58.26 bitrate=6645.0kbits/s speed= 100x    frame=240891 fps=6019 q=-1.0 size= 3249152kB time=01:06:54.99 bitrate=6629.4kbits/s speed= 100x    frame=245216 fps=6051 q=-1.0 size= 3287808kB time=01:08:07.08 bitrate=6590.0kbits/s speed= 101x    frame=248276 fps=6052 q=-1.0 size= 3328768kB time=01:08:58.08 bitrate=6589.8kbits/s speed= 101x    frame=252352 fps=6077 q=-1.0 size= 3366656kB time=01:10:06.01 bitrate=6557.2kbits/s speed= 101x    frame=256059 fps=6093 q=-1.0 size= 3406592kB time=01:11:07.79 bitrate=6538.9kbits/s speed= 102x    frame=260256 fps=6120 q=-1.0 size= 3448832kB time=01:12:17.74 bitrate=6513.3kbits/s speed= 102x    frame=263558 fps=6125 q=-1.0 size= 3485696kB time=01:13:12.78 bitrate=6500.4kbits/s speed= 102x    frame=267939 fps=6156 q=-1.0 size= 3527680kB time=01:14:25.79 bitrate=6471.1kbits/s speed= 103x    frame=272022 fps=6178 q=-1.0 size= 3569920kB time=01:15:33.84 bitrate=6450.3kbits/s speed= 103x    frame=275234 fps=6181 q=-1.0 size= 3610112kB time=01:16:27.38 bitrate=6446.8kbits/s speed= 103x    frame=279250 fps=6202 q=-1.0 size= 3649792kB time=01:17:34.31 bitrate=6424.0kbits/s speed= 103x    frame=282038 fps=6195 q=-1.0 size= 3690240kB time=01:18:20.78 bitrate=6430.9kbits/s speed= 103x    frame=284782 fps=6187 q=-1.0 size= 3731456kB time=01:19:06.51 bitrate=6440.1kbits/s speed= 103x    frame=287692 fps=6183 q=-1.0 size= 3774720kB time=01:19:55.01 bitrate=6448.9kbits/s speed= 103x    frame=290121 fps=6169 q=-1.0 size= 3812096kB time=01:20:35.49 bitrate=6458.2kbits/s speed= 103x    frame=293844 fps=6182 q=-1.0 size= 3854336kB time=01:21:37.56 bitrate=6447.0kbits/s speed= 103x    frame=297563 fps=6195 q=-1.0 size= 3895040kB time=01:22:39.53 bitrate=6433.7kbits/s speed= 103x    frame=300462 fps=6191 q=-1.0 size= 3932928kB time=01:23:27.84 bitrate=6433.6kbits/s speed= 103x    frame=304013 fps=6201 q=-1.0 size= 3973888kB time=01:24:27.03 bitrate=6424.7kbits/s speed= 103x    frame=308050 fps=6219 q=-1.0 size= 4015360kB time=01:25:34.31 bitrate=6406.7kbits/s speed= 104x    frame=310902 fps=6214 q=-1.0 size= 4052736kB time=01:26:21.84 bitrate=6407.0kbits/s speed= 104x    frame=313847 fps=6211 q=-1.0 size= 4096512kB time=01:27:10.93 bitrate=6415.4kbits/s speed= 104x    frame=316378 fps=6200 q=-1.0 size= 4135168kB time=01:27:53.11 bitrate=6424.2kbits/s speed= 103x    frame=321085 fps=6231 q=-1.0 size= 4174336kB time=01:29:11.56 bitrate=6389.9kbits/s speed= 104x    frame=324294 fps=6233 q=-1.0 size= 4216576kB time=01:30:05.06 bitrate=6390.7kbits/s speed= 104x    frame=327263 fps=6230 q=-1.0 size= 4255744kB time=01:30:54.53 bitrate=6391.6kbits/s speed= 104x    frame=330086 fps=6224 q=-1.0 size= 4296704kB time=01:31:41.59 bitrate=6397.9kbits/s speed= 104x    frame=333334 fps=6227 q=-1.0 size= 4340224kB time=01:32:35.71 bitrate=6399.7kbits/s speed= 104x    frame=336186 fps=6222 q=-1.0 size= 4378368kB time=01:33:23.24 bitrate=6401.2kbits/s speed= 104x    frame=339104 fps=6218 q=-1.0 size= 4420864kB time=01:34:11.88 bitrate=6407.7kbits/s speed= 104x    frame=341792 fps=6211 q=-1.0 size= 4460544kB time=01:34:56.68 bitrate=6414.4kbits/s speed= 104x    frame=344771 fps=6208 q=-1.0 size= 4500480kB time=01:35:46.33 bitrate=6415.9kbits/s speed= 103x    frame=348046 fps=6211 q=-1.0 size= 4542976kB time=01:36:40.91 bitrate=6415.6kbits/s speed= 104x    frame=350790 fps=6205 q=-1.0 size= 4582144kB time=01:37:26.66 bitrate=6420.2kbits/s speed= 103x    frame=353718 fps=6202 q=-1.0 size= 4622336kB time=01:38:15.44 bitrate=6423.0kbits/s speed= 103x    frame=356617 fps=6198 q=-1.0 size= 4664064kB time=01:39:03.76 bitrate=6428.3kbits/s speed= 103x    frame=359200 fps=6189 q=-1.0 size= 4700160kB time=01:39:46.81 bitrate=6431.4kbits/s speed= 103x    frame=361722 fps=6180 q=-1.0 size= 4737536kB time=01:40:28.84 bitrate=6437.4kbits/s speed= 103x    frame=364541 fps=6175 q=-1.0 size= 4777984kB time=01:41:15.84 bitrate=6442.1kbits/s speed= 103x    frame=367102 fps=6166 q=-1.0 size= 4814592kB time=01:41:58.51 bitrate=6446.2kbits/s speed= 103x    frame=370001 fps=6163 q=-1.0 size= 4856320kB time=01:42:46.83 bitrate=6451.1kbits/s speed= 103x    frame=373837 fps=6175 q=-1.0 size= 4895744kB time=01:43:50.76 bitrate=6436.8kbits/s speed= 103x    frame=378766 fps=6206 q=-1.0 size= 4936448kB time=01:45:12.92 bitrate=6405.8kbits/s speed= 103x    frame=384224 fps=6244 q=-1.0 size= 4978176kB time=01:46:43.88 bitrate=6368.2kbits/s speed= 104x    frame=386616 fps=6232 q=-1.0 size= 5016320kB time=01:47:23.75 bitrate=6377.3kbits/s speed= 104x    frame=390492 fps=6244 q=-1.0 size= 5061376kB time=01:48:28.35 bitrate=6370.7kbits/s speed= 104x    frame=393826 fps=6247 q=-1.0 size= 5105920kB time=01:49:23.91 bitrate=6372.4kbits/s speed= 104x    frame=397059 fps=6249 q=-1.0 size= 5144320kB time=01:50:17.79 bitrate=6368.0kbits/s speed= 104x    frame=400470 fps=6254 q=-1.0 size= 5186560kB time=01:51:14.64 bitrate=6365.6kbits/s speed= 104x    frame=403652 fps=6254 q=-1.0 size= 5228800kB time=01:52:07.68 bitrate=6366.9kbits/s speed= 104x    frame=406009 fps=6242 q=-1.0 size= 5267200kB time=01:52:46.96 bitrate=6376.4kbits/s speed= 104x    frame=409611 fps=6250 q=-1.0 size= 5310976kB time=01:53:46.99 bitrate=6372.9kbits/s speed= 104x    frame=413370 fps=6259 q=-1.0 size= 5349120kB time=01:54:49.64 bitrate=6360.3kbits/s speed= 104x    frame=416865 fps=6265 q=-1.0 size= 5392896kB time=01:55:47.90 bitrate=6358.5kbits/s speed= 104x    frame=420654 fps=6275 q=-1.0 size= 5434624kB time=01:56:51.05 bitrate=6350.0kbits/s speed= 105x    frame=423373 fps=6268 q=-1.0 size= 5473792kB time=01:57:36.36 bitrate=6354.7kbits/s speed= 104x    frame=426377 fps=6266 q=-1.0 size= 5514240kB time=01:58:26.43 bitrate=6356.6kbits/s speed= 104x    frame=429862 fps=6271 q=-1.0 size= 5558016kB time=01:59:24.52 bitrate=6355.1kbits/s speed= 105x    frame=432655 fps=6266 q=-1.0 size= 5596928kB time=02:00:11.06 bitrate=6358.3kbits/s speed= 104x    frame=435896 fps=6268 q=-1.0 size= 5640960kB time=02:01:05.08 bitrate=6360.7kbits/s speed= 104x    frame=439133 fps=6269 q=-1.0 size= 5680384kB time=02:01:59.04 bitrate=6357.9kbits/s speed= 104x    frame=441953 fps=6265 q=-1.0 size= 5721600kB time=02:02:46.04 bitrate=6363.2kbits/s speed= 104x    frame=445839 fps=6276 q=-1.0 size= 5762048kB time=02:03:50.79 bitrate=6352.3kbits/s speed= 105x    frame=448543 fps=6269 q=-1.0 size= 5800192kB time=02:04:35.86 bitrate=6355.8kbits/s speed= 104x    frame=451139 fps=6262 q=-1.0 size= 5838848kB time=02:05:19.13 bitrate=6361.4kbits/s speed= 104x    frame=453714 fps=6254 q=-1.0 size= 5876992kB time=02:06:02.05 bitrate=6366.6kbits/s speed= 104x    frame=456145 fps=6245 q=-1.0 size= 5912576kB time=02:06:42.56 bitrate=6371.0kbits/s speed= 104x    frame=459250 fps=6245 q=-1.0 size= 5954304kB time=02:07:34.31 bitrate=6372.6kbits/s speed= 104x    frame=462155 fps=6241 q=-1.0 size= 5995520kB time=02:08:22.73 bitrate=6376.3kbits/s speed= 104x    frame=465075 fps=6239 q=-1.0 size= 6038784kB time=02:09:11.40 bitrate=6382.0kbits/s speed= 104x    frame=467939 fps=6235 q=-1.0 size= 6078720kB time=02:09:59.13 bitrate=6384.9kbits/s speed= 104x    frame=471176 fps=6237 q=-1.0 size= 6123776kB time=02:10:53.08 bitrate=6388.1kbits/s speed= 104x    frame=474015 fps=6233 q=-1.0 size= 6166016kB time=02:11:40.39 bitrate=6393.6kbits/s speed= 104x    frame=476665 fps=6227 q=-1.0 size= 6204672kB time=02:12:24.56 bitrate=6397.9kbits/s speed= 104x    frame=479457 fps=6223 q=-1.0 size= 6246656kB time=02:13:11.09 bitrate=6403.7kbits/s speed= 104x    frame=482729 fps=6225 q=-1.0 size= 6290432kB time=02:14:05.63 bitrate=6404.9kbits/s speed= 104x    frame=485312 fps=6218 q=-1.0 size= 6328576kB time=02:14:48.68 bitrate=6409.4kbits/s speed= 104x    frame=488308 fps=6216 q=-1.0 size= 6371840kB time=02:15:38.61 bitrate=6413.6kbits/s speed= 104x    frame=491017 fps=6211 q=-1.0 size= 6412544kB time=02:16:23.76 bitrate=6419.0kbits/s speed= 104x    frame=493752 fps=6207 q=-1.0 size= 6452480kB time=02:17:09.34 bitrate=6423.2kbits/s speed= 103x    frame=496430 fps=6201 q=-1.0 size= 6492160kB time=02:17:53.98 bitrate=6427.8kbits/s speed= 103x    frame=499307 fps=6199 q=-1.0 size= 6534656kB time=02:18:41.94 bitrate=6432.6kbits/s speed= 103x    frame=502450 fps=6199 q=-1.0 size= 6577152kB time=02:19:34.31 bitrate=6434.0kbits/s speed= 103x    frame=505348 fps=6197 q=-1.0 size= 6618880kB time=02:20:22.61 bitrate=6437.7kbits/s speed= 103x    frame=508296 fps=6195 q=-1.0 size= 6660608kB time=02:21:11.74 bitrate=6440.7kbits/s speed= 103x    frame=511195 fps=6192 q=-1.0 size= 6702336kB time=02:22:00.06 bitrate=6444.3kbits/s speed= 103x    frame=513905 fps=6188 q=-1.0 size= 6740736kB time=02:22:45.23 bitrate=6447.0kbits/s speed= 103x    frame=516996 fps=6188 q=-1.0 size= 6783488kB time=02:23:36.74 bitrate=6449.1kbits/s speed= 103x    frame=519547 fps=6181 q=-1.0 size= 6823680kB time=02:24:19.26 bitrate=6455.5kbits/s speed= 103x    frame=522367 fps=6178 q=-1.0 size= 6863872kB time=02:25:06.26 bitrate=6458.4kbits/s speed= 103x    frame=524948 fps=6172 q=-1.0 size= 6904576kB time=02:25:49.29 bitrate=6464.8kbits/s speed= 103x    frame=527487 fps=6165 q=-1.0 size= 6942464kB time=02:26:31.59 bitrate=6469.0kbits/s speed= 103x    frame=530211 fps=6161 q=-1.0 size= 6983168kB time=02:27:16.99 bitrate=6473.5kbits/s speed= 103x    frame=533000 fps=6158 q=-1.0 size= 7025920kB time=02:28:03.48 bitrate=6479.0kbits/s speed= 103x    frame=535821 fps=6155 q=-1.0 size= 7064576kB time=02:28:50.50 bitrate=6480.4kbits/s speed= 103x    frame=538734 fps=6153 q=-1.0 size= 7108608kB time=02:29:39.04 bitrate=6485.5kbits/s speed= 103x    frame=541556 fps=6150 q=-1.0 size= 7148800kB time=02:30:26.09 bitrate=6488.2kbits/s speed= 103x    frame=544192 fps=6145 q=-1.0 size= 7190016kB time=02:31:10.01 bitrate=6494.0kbits/s speed= 102x    frame=547088 fps=6143 q=-1.0 size= 7231488kB time=02:31:58.28 bitrate=6496.9kbits/s speed= 102x    frame=549700 fps=6138 q=-1.0 size= 7270912kB time=02:32:41.81 bitrate=6501.3kbits/s speed= 102x    frame=552405 fps=6134 q=-1.0 size= 7311616kB time=02:33:26.89 bitrate=6505.6kbits/s speed= 102x    frame=555338 fps=6132 q=-1.0 size= 7354368kB time=02:34:15.78 bitrate=6509.1kbits/s speed= 102x    frame=557655 fps=6124 q=-1.0 size= 7390464kB time=02:34:54.39 bitrate=6513.9kbits/s speed= 102x    frame=561654 fps=6134 q=-1.0 size= 7433216kB time=02:36:01.04 bitrate=6504.9kbits/s speed= 102x    frame=566695 fps=6156 q=-1.0 size= 7473152kB time=02:37:25.06 bitrate=6481.7kbits/s speed= 103x    frame=570800 fps=6167 q=-1.0 size= 7510016kB time=02:38:33.48 bitrate=6466.8kbits/s speed= 103x    frame=574938 fps=6178 q=-1.0 size= 7551744kB time=02:39:42.44 bitrate=6456.0kbits/s speed= 103x    frame=579634 fps=6195 q=-1.0 size= 7592448kB time=02:41:00.71 bitrate=6438.2kbits/s speed= 103x    frame=584059 fps=6209 q=-1.0 size= 7630592kB time=02:42:14.46 bitrate=6421.5kbits/s speed= 103x    frame=589219 fps=6231 q=-1.0 size= 7673088kB time=02:43:40.46 bitrate=6400.7kbits/s speed= 104x    frame=594583 fps=6255 q=-1.0 size= 7708160kB time=02:45:09.87 bitrate=6372.0kbits/s speed= 104x    frame=598280 fps=6261 q=-1.0 size= 7750912kB time=02:46:11.48 bitrate=6367.7kbits/s speed= 104x    frame=600927 fps=6256 q=-1.0 size= 7793408kB time=02:46:55.59 bitrate=6374.4kbits/s speed= 104x    frame=603567 fps=6250 q=-1.0 size= 7832320kB time=02:47:39.60 bitrate=6378.2kbits/s speed= 104x    frame=606189 fps=6245 q=-1.0 size= 7874816kB time=02:48:23.30 bitrate=6385.1kbits/s speed= 104x    frame=608762 fps=6240 q=-1.0 size= 7916544kB time=02:49:06.18 bitrate=6391.8kbits/s speed= 104x    frame=611333 fps=6234 q=-1.0 size= 7955456kB time=02:49:49.03 bitrate=6396.2kbits/s speed= 104x    frame=614276 fps=6232 q=-1.0 size= 7998720kB time=02:50:38.08 bitrate=6400.2kbits/s speed= 104x    frame=616699 fps=6225 q=-1.0 size= 8037888kB time=02:51:18.46 bitrate=6406.2kbits/s speed= 104x    frame=619260 fps=6220 q=-1.0 size= 8078848kB time=02:52:01.15 bitrate=6412.3kbits/s speed= 104x    frame=622820 fps=6224 q=-1.0 size= 8120576kB time=02:53:00.48 bitrate=6408.5kbits/s speed= 104x    frame=625930 fps=6224 q=-1.0 size= 8159232kB time=02:53:52.32 bitrate=6407.1kbits/s speed= 104x    frame=631032 fps=6244 q=-1.0 size= 8199424kB time=02:55:17.34 bitrate=6386.6kbits/s speed= 104x    frame=635025 fps=6252 q=-1.0 size= 8240896kB time=02:56:23.89 bitrate=6378.5kbits/s speed= 104x    frame=638785 fps=6258 q=-1.0 size= 8278784kB time=02:57:26.56 bitrate=6370.1kbits/s speed= 104x    frame=643101 fps=6270 q=-1.0 size= 8320512kB time=02:58:38.51 bitrate=6359.2kbits/s speed= 105x    frame=647220 fps=6280 q=-1.0 size= 8360192kB time=02:59:47.16 bitrate=6348.9kbits/s speed= 105x    frame=650280 fps=6279 q=-1.0 size= 8399360kB time=03:00:38.14 bitrate=6348.6kbits/s speed= 105x    frame=653719 fps=6282 q=-1.0 size= 8442880kB time=03:01:35.46 bitrate=6348.0kbits/s speed= 105x    frame=656789 fps=6281 q=-1.0 size= 8482816kB time=03:02:26.63 bitrate=6348.2kbits/s speed= 105x    frame=660479 fps=6286 q=-1.0 size= 8525056kB time=03:03:28.13 bitrate=6344.2kbits/s speed= 105x    frame=664840 fps=6298 q=-1.0 size= 8567808kB time=03:04:40.81 bitrate=6334.1kbits/s speed= 105x    frame=667127 fps=6289 q=-1.0 size= 8605696kB time=03:05:18.93 bitrate=6340.3kbits/s speed= 105x    frame=669871 fps=6286 q=-1.0 size= 8650240kB time=03:06:04.66 bitrate=6347.1kbits/s speed= 105x    frame=672465 fps=6281 q=-1.0 size= 8692224kB time=03:06:47.89 bitrate=6353.3kbits/s speed= 105x    frame=675690 fps=6281 q=-1.0 size= 8731136kB time=03:07:41.64 bitrate=6351.2kbits/s speed= 105x    frame=678467 fps=6278 q=-1.0 size= 8772352kB time=03:08:27.93 bitrate=6355.1kbits/s speed= 105x    frame=681168 fps=6274 q=-1.0 size= 8812544kB time=03:09:12.94 bitrate=6358.9kbits/s speed= 105x    frame=684375 fps=6274 q=-1.0 size= 8854272kB time=03:10:06.39 bitrate=6359.1kbits/s speed= 105x    frame=687507 fps=6274 q=-1.0 size= 8896768kB time=03:10:58.60 bitrate=6360.5kbits/s speed= 105x    frame=689994 fps=6269 q=-1.0 size= 8933632kB time=03:11:40.05 bitrate=6363.8kbits/s speed= 104x    frame=693929 fps=6276 q=-1.0 size= 8975360kB time=03:12:45.63 bitrate=6357.3kbits/s speed= 105x    frame=697126 fps=6276 q=-1.0 size= 9016832kB time=03:13:38.92 bitrate=6357.4kbits/s speed= 105x    frame=699796 fps=6272 q=-1.0 size= 9057536kB time=03:14:23.42 bitrate=6361.7kbits/s speed= 105x    frame=702724 fps=6270 q=-1.0 size= 9098496kB time=03:15:12.21 bitrate=6363.9kbits/s speed= 105x    frame=705590 fps=6268 q=-1.0 size= 9139456kB time=03:15:59.98 bitrate=6366.5kbits/s speed= 104x    frame=708040 fps=6262 q=-1.0 size= 9177344kB time=03:16:40.81 bitrate=6370.8kbits/s speed= 104x    frame=710850 fps=6259 q=-1.0 size= 9220096kB time=03:17:27.64 bitrate=6375.2kbits/s speed= 104x    frame=713334 fps=6253 q=-1.0 size= 9258496kB time=03:18:09.04 bitrate=6379.5kbits/s speed= 104x    frame=715959 fps=6249 q=-1.0 size= 9297920kB time=03:18:52.79 bitrate=6383.1kbits/s speed= 104x    frame=718673 fps=6245 q=-1.0 size= 9338624kB time=03:19:38.03 bitrate=6386.9kbits/s speed= 104x    frame=721011 fps=6238 q=-1.0 size= 9375744kB time=03:20:16.99 bitrate=6391.5kbits/s speed= 104x    frame=723827 fps=6236 q=-1.0 size= 9416192kB time=03:21:03.93 bitrate=6394.1kbits/s speed= 104x    frame=726911 fps=6236 q=-1.0 size= 9457920kB time=03:21:55.33 bitrate=6395.1kbits/s speed= 104x    frame=729271 fps=6229 q=-1.0 size= 9495040kB time=03:22:34.66 bitrate=6399.5kbits/s speed= 104x    frame=732150 fps=6227 q=-1.0 size= 9537024kB time=03:23:22.64 bitrate=6402.5kbits/s speed= 104x    frame=734765 fps=6223 q=-1.0 size= 9575936kB time=03:24:06.23 bitrate=6405.7kbits/s speed= 104x    frame=737207 fps=6217 q=-1.0 size= 9611520kB time=03:24:46.93 bitrate=6408.2kbits/s speed= 104x    frame=739894 fps=6214 q=-1.0 size= 9651968kB time=03:25:31.71 bitrate=6411.8kbits/s speed= 104x    frame=742460 fps=6209 q=-1.0 size= 9690112kB time=03:26:14.48 bitrate=6414.9kbits/s speed= 103x    frame=745197 fps=6206 q=-1.0 size= 9730560kB time=03:27:00.09 bitrate=6418.0kbits/s speed= 103x    frame=747882 fps=6202 q=-1.0 size= 9772032kB time=03:27:44.85 bitrate=6422.3kbits/s speed= 103x    frame=750212 fps=6196 q=-1.0 size= 9808640kB time=03:28:23.68 bitrate=6426.3kbits/s speed= 103x    frame=752989 fps=6193 q=-1.0 size= 9850880kB time=03:29:09.96 bitrate=6430.2kbits/s speed= 103x    frame=755697 fps=6190 q=-1.0 size= 9890560kB time=03:29:55.09 bitrate=6432.9kbits/s speed= 103x    frame=758141 fps=6185 q=-1.0 size= 9928192kB time=03:30:35.84 bitrate=6436.6kbits/s speed= 103x    frame=760786 fps=6181 q=-1.0 size= 9969920kB time=03:31:19.91 bitrate=6441.2kbits/s speed= 103x    frame=765545 fps=6195 q=-1.0 size=10008320kB time=03:32:39.23 bitrate=6425.8kbits/s speed= 103x    frame=768809 fps=6196 q=-1.0 size=10047232kB time=03:33:33.63 bitrate=6423.4kbits/s speed= 103x    frame=771553 fps=6193 q=-1.0 size=10088960kB time=03:34:19.36 bitrate=6427.1kbits/s speed= 103x    frame=774222 fps=6190 q=-1.0 size=10126592kB time=03:35:03.84 bitrate=6428.9kbits/s speed= 103x    frame=777341 fps=6190 q=-1.0 size=10169088kB time=03:35:55.83 bitrate=6429.9kbits/s speed= 103x    frame=780060 fps=6187 q=-1.0 size=10210560kB time=03:36:41.15 bitrate=6433.7kbits/s speed= 103x    frame=782651 fps=6183 q=-1.0 size=10247936kB time=03:37:24.33 bitrate=6435.8kbits/s speed= 103x    frame=785338 fps=6180 q=-1.0 size=10288896kB time=03:38:09.11 bitrate=6439.4kbits/s speed= 103x    frame=788109 fps=6177 q=-1.0 size=10329856kB time=03:38:55.30 bitrate=6442.3kbits/s speed= 103x    frame=791648 fps=6181 q=-1.0 size=10367744kB time=03:39:54.28 bitrate=6437.1kbits/s speed= 103x    frame=795067 fps=6183 q=-1.0 size=10411008kB time=03:40:51.26 bitrate=6436.1kbits/s speed= 103x    frame=797906 fps=6181 q=-1.0 size=10449664kB time=03:41:38.58 bitrate=6437.1kbits/s speed= 103x    frame=801146 fps=6183 q=-1.0 size=10490112kB time=03:42:32.58 bitrate=6435.8kbits/s speed= 103x    frame=804370 fps=6183 q=-1.0 size=10532352kB time=03:43:26.31 bitrate=6435.9kbits/s speed= 103x    frame=808270 fps=6190 q=-1.0 size=10570496kB time=03:44:31.32 bitrate=6428.0kbits/s speed= 103x    frame=811021 fps=6187 q=-1.0 size=10611968kB time=03:45:17.16 bitrate=6431.3kbits/s speed= 103x    frame=813939 fps=6186 q=-1.0 size=10655232kB time=03:46:05.80 bitrate=6434.4kbits/s speed= 103x    frame=818035 fps=6193 q=-1.0 size=10691840kB time=03:47:14.07 bitrate=6424.2kbits/s speed= 103x    frame=821518 fps=6196 q=-1.0 size=10734592kB time=03:48:12.12 bitrate=6422.5kbits/s speed= 103x    frame=824677 fps=6197 q=-1.0 size=10773504kB time=03:49:04.77 bitrate=6421.1kbits/s speed= 103x    frame=828037 fps=6199 q=-1.0 size=10814208kB time=03:50:00.76 bitrate=6419.2kbits/s speed= 103x    frame=832303 fps=6207 q=-1.0 size=10854656kB time=03:51:11.86 bitrate=6410.2kbits/s speed= 103x    frame=836139 fps=6213 q=-1.0 size=10891776kB time=03:52:15.79 bitrate=6402.6kbits/s speed= 104x    frame=839443 fps=6214 q=-1.0 size=10931456kB time=03:53:10.87 bitrate=6400.6kbits/s speed= 104x    frame=842659 fps=6215 q=-1.0 size=10973184kB time=03:54:04.46 bitrate=6400.6kbits/s speed= 104x    frame=845305 fps=6211 q=-1.0 size=11009024kB time=03:54:48.56 bitrate=6401.4kbits/s speed= 104x    frame=848521 fps=6212 q=-1.0 size=11051008kB time=03:55:42.16 bitrate=6401.4kbits/s speed= 104x    frame=851791 fps=6213 q=-1.0 size=11090432kB time=03:56:36.67 bitrate=6399.6kbits/s speed= 104x    frame=854639 fps=6212 q=-1.0 size=11128064kB time=03:57:24.13 bitrate=6399.9kbits/s speed= 104x    frame=857795 fps=6212 q=-1.0 size=11168768kB time=03:58:16.73 bitrate=6399.7kbits/s speed= 104x    frame=860964 fps=6212 q=-1.0 size=11210240kB time=03:59:09.55 bitrate=6399.8kbits/s speed= 104x    frame=864259 fps=6214 q=-1.0 size=11251712kB time=04:00:04.46 bitrate=6399.0kbits/s speed= 104x    frame=867689 fps=6216 q=-1.0 size=11295232kB time=04:01:01.63 bitrate=6398.3kbits/s speed= 104x    frame=871387 fps=6220 q=-1.0 size=11333120kB time=04:02:03.26 bitrate=6392.6kbits/s speed= 104x    frame=877317 fps=6240 q=-1.0 size=11375616kB time=04:03:42.10 bitrate=6373.2kbits/s speed= 104x    frame=880924 fps=6244 q=-1.0 size=11418880kB time=04:04:42.22 bitrate=6371.2kbits/s speed= 104x    frame=884119 fps=6244 q=-1.0 size=11457280kB time=04:05:35.47 bitrate=6369.5kbits/s speed= 104x    frame=888207 fps=6251 q=-1.0 size=11499008kB time=04:06:43.59 bitrate=6363.3kbits/s speed= 104x    frame=892514 fps=6259 q=-1.0 size=11541248kB time=04:07:55.38 bitrate=6355.9kbits/s speed= 104x    frame=895610 fps=6259 q=-1.0 size=11581440kB time=04:08:46.98 bitrate=6356.0kbits/s speed= 104x    frame=899068 fps=6261 q=-1.0 size=11625728kB time=04:09:44.62 bitrate=6355.7kbits/s speed= 104x    frame=902391 fps=6263 q=-1.0 size=11665152kB time=04:10:39.99 bitrate=6353.8kbits/s speed= 104x    frame=905733 fps=6264 q=-1.0 size=11707648kB time=04:11:35.69 bitrate=6353.4kbits/s speed= 104x    frame=908879 fps=6264 q=-1.0 size=11746048kB time=04:12:28.14 bitrate=6352.2kbits/s speed= 104x    frame=911817 fps=6263 q=-1.0 size=11782400kB time=04:13:17.09 bitrate=6351.3kbits/s speed= 104x    frame=915101 fps=6264 q=-1.0 size=11823360kB time=04:14:11.84 bitrate=6350.5kbits/s speed= 104x    frame=918474 fps=6265 q=-1.0 size=11865856kB time=04:15:08.04 bitrate=6349.9kbits/s speed= 104x    frame=922439 fps=6271 q=-1.0 size=11904512kB time=04:16:14.13 bitrate=6343.2kbits/s speed= 105x    frame=925691 fps=6272 q=-1.0 size=11947520kB time=04:17:08.33 bitrate=6343.8kbits/s speed= 105x    frame=928859 fps=6272 q=-1.0 size=11987456kB time=04:18:01.13 bitrate=6343.3kbits/s speed= 105x    frame=932218 fps=6274 q=-1.0 size=12029184kB time=04:18:57.11 bitrate=6342.4kbits/s speed= 105x    frame=935423 fps=6274 q=-1.0 size=12071936kB time=04:19:50.53 bitrate=6343.2kbits/s speed= 105x    frame=938377 fps=6273 q=-1.0 size=12111104kB time=04:20:39.76 bitrate=6343.7kbits/s speed= 105x    frame=941738 fps=6274 q=-1.0 size=12153600kB time=04:21:35.79 bitrate=6343.2kbits/s speed= 105x    frame=945352 fps=6277 q=-1.0 size=12197632kB time=04:22:36.01 bitrate=6341.9kbits/s speed= 105x    frame=948205 fps=6275 q=-1.0 size=12235520kB time=04:23:23.56 bitrate=6342.5kbits/s speed= 105x    frame=951939 fps=6279 q=-1.0 size=12279552kB time=04:24:25.79 bitrate=6340.3kbits/s speed= 105x    frame=955017 fps=6279 q=-1.0 size=12319232kB time=04:25:17.09 bitrate=6340.3kbits/s speed= 105x    frame=958760 fps=6283 q=-1.0 size=12363264kB time=04:26:19.48 bitrate=6338.1kbits/s speed= 105x    frame=962295 fps=6285 q=-1.0 size=12407040kB time=04:27:18.39 bitrate=6337.2kbits/s speed= 105x    frame=965855 fps=6288 q=-1.0 size=12450048kB time=04:28:17.73 bitrate=6335.7kbits/s speed= 105x    frame=969399 fps=6291 q=-1.0 size=12493312kB time=04:29:16.80 bitrate=6334.5kbits/s speed= 105x    frame=972861 fps=6293 q=-1.0 size=12536832kB time=04:30:14.51 bitrate=6333.9kbits/s speed= 105x    frame=975794 fps=6291 q=-1.0 size=12574208kB time=04:31:03.38 bitrate=6333.7kbits/s speed= 105x    frame=979030 fps=6292 q=-1.0 size=12613120kB time=04:31:57.31 bitrate=6332.3kbits/s speed= 105x    frame=982424 fps=6294 q=-1.0 size=12655872kB time=04:32:53.88 bitrate=6331.8kbits/s speed= 105x    frame=986632 fps=6300 q=-1.0 size=12694016kB time=04:34:04.01 bitrate=6323.8kbits/s speed= 105x    frame=992209 fps=6316 q=-1.0 size=12734464kB time=04:35:36.96 bitrate=6308.3kbits/s speed= 105x    frame=996479 fps=6323 q=-1.0 size=12776192kB time=04:36:48.13 bitrate=6301.9kbits/s speed= 105x    frame=1001769 fps=6336 q=-1.0 size=12817408kB time=04:38:16.29 bitrate=6288.8kbits/s speed= 106x    frame=1005690 fps=6341 q=-1.0 size=12861184kB time=04:39:21.64 bitrate=6285.7kbits/s speed= 106x    frame=1010030 fps=6348 q=-1.0 size=12903424kB time=04:40:33.98 bitrate=6279.3kbits/s speed= 106x    frame=1014531 fps=6357 q=-1.0 size=12947200kB time=04:41:48.99 bitrate=6272.6kbits/s speed= 106x    frame=1019178 fps=6366 q=-1.0 size=12989696kB time=04:43:06.44 bitrate=6264.5kbits/s speed= 106x    frame=1023110 fps=6370 q=-1.0 size=13032960kB time=04:44:11.98 bitrate=6261.2kbits/s speed= 106x    frame=1030240 fps=6395 q=-1.0 size=13073920kB time=04:46:10.81 bitrate=6237.4kbits/s speed= 107x    frame=1034900 fps=6404 q=-1.0 size=13116160kB time=04:47:28.49 bitrate=6229.4kbits/s speed= 107x    frame=1038714 fps=6408 q=-1.0 size=13157888kB time=04:48:32.04 bitrate=6226.3kbits/s speed= 107x    frame=1042271 fps=6410 q=-1.0 size=13201152kB time=04:49:31.33 bitrate=6225.4kbits/s speed= 107x    frame=1045539 fps=6410 q=-1.0 size=13240832kB time=04:50:25.79 bitrate=6224.6kbits/s speed= 107x    frame=1049513 fps=6415 q=-1.0 size=13282560kB time=04:51:32.03 bitrate=6220.6kbits/s speed= 107x    frame=1053012 fps=6417 q=-1.0 size=13326848kB time=04:52:30.36 bitrate=6220.6kbits/s speed= 107x    frame=1056957 fps=6421 q=-1.0 size=13367808kB time=04:53:36.09 bitrate=6216.4kbits/s speed= 107x    frame=1060160 fps=6421 q=-1.0 size=13409792kB time=04:54:29.48 bitrate=6217.1kbits/s speed= 107x    frame=1063689 fps=6423 q=-1.0 size=13453568kB time=04:55:28.30 bitrate=6216.7kbits/s speed= 107x    frame=1066932 fps=6423 q=-1.0 size=13495552kB time=04:56:22.36 bitrate=6217.1kbits/s speed= 107x    frame=1071927 fps=6434 q=-1.0 size=13537280kB time=04:57:45.60 bitrate=6207.3kbits/s speed= 107x    frame=1076859 fps=6444 q=-1.0 size=13576448kB time=04:59:07.79 bitrate=6196.8kbits/s speed= 107x    frame=1081500 fps=6453 q=-1.0 size=13614080kB time=05:00:25.15 bitrate=6187.3kbits/s speed= 108x    frame=1086345 fps=6462 q=-1.0 size=13652224kB time=05:01:45.89 bitrate=6176.9kbits/s speed= 108x    frame=1089636 fps=6463 q=-1.0 size=13688320kB time=05:02:40.74 bitrate=6174.6kbits/s speed= 108x    frame=1092940 fps=6463 q=-1.0 size=13729280kB time=05:03:35.81 bitrate=6174.3kbits/s speed= 108x    frame=1095511 fps=6459 q=-1.0 size=13771776kB time=05:04:18.66 bitrate=6178.9kbits/s speed= 108x    frame=1097804 fps=6453 q=-1.0 size=13809664kB time=05:04:56.88 bitrate=6183.0kbits/s speed= 108x    frame=1101861 fps=6458 q=-1.0 size=13850880kB time=05:06:04.50 bitrate=6178.6kbits/s speed= 108x    frame=1104895 fps=6457 q=-1.0 size=13892352kB time=05:06:55.06 bitrate=6180.1kbits/s speed= 108x    frame=1107850 fps=6456 q=-1.0 size=13929728kB time=05:07:44.31 bitrate=6180.2kbits/s speed= 108x    frame=1110932 fps=6455 q=-1.0 size=13970688kB time=05:08:35.69 bitrate=6181.1kbits/s speed= 108x    frame=1113919 fps=6453 q=-1.0 size=14010624kB time=05:09:25.46 bitrate=6182.2kbits/s speed= 108x    frame=1116900 fps=6452 q=-1.0 size=14049536kB time=05:10:15.15 bitrate=6182.8kbits/s speed= 108x    frame=1120079 fps=6452 q=-1.0 size=14091520kB time=05:11:08.14 bitrate=6183.7kbits/s speed= 108x    frame=1122856 fps=6449 q=-1.0 size=14129920kB time=05:11:54.41 bitrate=6185.2kbits/s speed= 107x    frame=1127055 fps=6455 q=-1.0 size=14171136kB time=05:13:04.40 bitrate=6180.1kbits/s speed= 108x    frame=1130042 fps=6453 q=-1.0 size=14211072kB time=05:13:54.18 bitrate=6181.2kbits/s speed= 108x    frame=1133033 fps=6452 q=-1.0 size=14249472kB time=05:14:44.03 bitrate=6181.5kbits/s speed= 108x    frame=1136280 fps=6452 q=-1.0 size=14290944kB time=05:15:38.15 bitrate=6181.8kbits/s speed= 108x    frame=1139192 fps=6450 q=-1.0 size=14331648kB time=05:16:26.69 bitrate=6183.5kbits/s speed= 108x    frame=1142120 fps=6449 q=-1.0 size=14369280kB time=05:17:15.48 bitrate=6183.9kbits/s speed= 107x    frame=1145251 fps=6448 q=-1.0 size=14411264kB time=05:18:07.66 bitrate=6185.0kbits/s speed= 107x    frame=1148311 fps=6447 q=-1.0 size=14449920kB time=05:18:58.66 bitrate=6185.1kbits/s speed= 107x    frame=1151405 fps=6446 q=-1.0 size=14490112kB time=05:19:50.23 bitrate=6185.6kbits/s speed= 107x    frame=1154445 fps=6445 q=-1.0 size=14529536kB time=05:20:40.90 bitrate=6186.1kbits/s speed= 107x    frame=1157393 fps=6444 q=-1.0 size=14566656kB time=05:21:30.03 bitrate=6186.1kbits/s speed= 107x    frame=1162019 fps=6452 q=-1.0 size=14606592kB time=05:22:47.13 bitrate=6178.4kbits/s speed= 108x    frame=1165640 fps=6454 q=-1.0 size=14649088kB time=05:23:47.48 bitrate=6177.1kbits/s speed= 108x    frame=1168369 fps=6451 q=-1.0 size=14684928kB time=05:24:32.96 bitrate=6177.7kbits/s speed= 108x    frame=1173741 fps=6463 q=-1.0 size=14727168kB time=05:26:02.49 bitrate=6167.2kbits/s speed= 108x    frame=1176311 fps=6459 q=-1.0 size=14767104kB time=05:26:45.33 bitrate=6170.4kbits/s speed= 108x    frame=1178647 fps=6454 q=-1.0 size=14805760kB time=05:27:24.26 bitrate=6174.3kbits/s speed= 108x    frame=1181194 fps=6451 q=-1.0 size=14848000kB time=05:28:06.71 bitrate=6178.5kbits/s speed= 108x    frame=1183657 fps=6446 q=-1.0 size=14887424kB time=05:28:47.76 bitrate=6182.0kbits/s speed= 107x    frame=1186155 fps=6442 q=-1.0 size=14928896kB time=05:29:29.39 bitrate=6186.2kbits/s speed= 107x    frame=1188753 fps=6439 q=-1.0 size=14971904kB time=05:30:12.69 bitrate=6190.5kbits/s speed= 107x    frame=1191058 fps=6434 q=-1.0 size=15009024kB time=05:30:51.11 bitrate=6193.8kbits/s speed= 107x    frame=1193656 fps=6431 q=-1.0 size=15051776kB time=05:31:34.41 bitrate=6197.9kbits/s speed= 107x    frame=1196188 fps=6427 q=-1.0 size=15093760kB time=05:32:16.61 bitrate=6202.1kbits/s speed= 107x    frame=1198479 fps=6422 q=-1.0 size=15131648kB time=05:32:54.80 bitrate=6205.7kbits/s speed= 107x    frame=1201003 fps=6418 q=-1.0 size=15173632kB time=05:33:36.87 bitrate=6209.9kbits/s speed= 107x    frame=1203519 fps=6415 q=-1.0 size=15215360kB time=05:34:18.79 bitrate=6213.9kbits/s speed= 107x    frame=1206002 fps=6411 q=-1.0 size=15256320kB time=05:35:00.18 bitrate=6217.8kbits/s speed= 107x    frame=1208610 fps=6408 q=-1.0 size=15299584kB time=05:35:43.64 bitrate=6222.0kbits/s speed= 107x    frame=1210907 fps=6403 q=-1.0 size=15337472kB time=05:36:21.93 bitrate=6225.6kbits/s speed= 107x    frame=1213424 fps=6399 q=-1.0 size=15378176kB time=05:37:03.88 bitrate=6229.2kbits/s speed= 107x    frame=1215995 fps=6396 q=-1.0 size=15420672kB time=05:37:46.73 bitrate=6233.2kbits/s speed= 107x    frame=1218353 fps=6392 q=-1.0 size=15459840kB time=05:38:26.03 bitrate=6236.9kbits/s speed= 107x    frame=1220916 fps=6388 q=-1.0 size=15502080kB time=05:39:08.74 bitrate=6240.8kbits/s speed= 106x    frame=1223371 fps=6384 q=-1.0 size=15542784kB time=05:39:49.67 bitrate=6244.7kbits/s speed= 106x    frame=1225676 fps=6380 q=-1.0 size=15581184kB time=05:40:28.08 bitrate=6248.3kbits/s speed= 106x    frame=1228237 fps=6376 q=-1.0 size=15623424kB time=05:41:10.76 bitrate=6252.2kbits/s speed= 106x    frame=1230597 fps=6372 q=-1.0 size=15662592kB time=05:41:50.10 bitrate=6255.8kbits/s speed= 106x    frame=1233004 fps=6368 q=-1.0 size=15702784kB time=05:42:30.21 bitrate=6259.7kbits/s speed= 106x    frame=1235593 fps=6365 q=-1.0 size=15744256kB time=05:43:13.36 bitrate=6263.0kbits/s speed= 106x    frame=1237850 fps=6360 q=-1.0 size=15781632kB time=05:43:50.98 bitrate=6266.5kbits/s speed= 106x    frame=1240221 fps=6356 q=-1.0 size=15821056kB time=05:44:30.49 bitrate=6270.1kbits/s speed= 106x    frame=1242865 fps=6353 q=-1.0 size=15864576kB time=05:45:14.56 bitrate=6274.0kbits/s speed= 106x    frame=1245211 fps=6349 q=-1.0 size=15903488kB time=05:45:53.66 bitrate=6277.5kbits/s speed= 106x    frame=1247799 fps=6346 q=-1.0 size=15946496kB time=05:46:36.80 bitrate=6281.4kbits/s speed= 106x    frame=1250189 fps=6342 q=-1.0 size=15986176kB time=05:47:16.63 bitrate=6285.0kbits/s speed= 106x    frame=1252503 fps=6338 q=-1.0 size=16024576kB time=05:47:55.20 bitrate=6288.5kbits/s speed= 106x    frame=1254965 fps=6334 q=-1.0 size=16065280kB time=05:48:36.23 bitrate=6292.1kbits/s speed= 106x    frame=1257327 fps=6330 q=-1.0 size=16104448kB time=05:49:15.59 bitrate=6295.6kbits/s speed= 106x    frame=1259853 fps=6327 q=-1.0 size=16146176kB time=05:49:57.70 bitrate=6299.2kbits/s speed= 105x    frame=1262504 fps=6324 q=-1.0 size=16189952kB time=05:50:41.88 bitrate=6303.1kbits/s speed= 105x    frame=1264917 fps=6321 q=-1.0 size=16228864kB time=05:51:22.09 bitrate=6306.1kbits/s speed= 105x    frame=1267698 fps=6319 q=-1.0 size=16274944kB time=05:52:08.44 bitrate=6310.2kbits/s speed= 105x    frame=1270254 fps=6316 q=-1.0 size=16317440kB time=05:52:51.04 bitrate=6313.9kbits/s speed= 105x    frame=1272671 fps=6312 q=-1.0 size=16357376kB time=05:53:31.33 bitrate=6317.4kbits/s speed= 105x    frame=1275254 fps=6309 q=-1.0 size=16400128kB time=05:54:14.38 bitrate=6321.0kbits/s speed= 105x    frame=1277754 fps=6306 q=-1.0 size=16441600kB time=05:54:56.04 bitrate=6324.6kbits/s speed= 105x    frame=1280417 fps=6303 q=-1.0 size=16485632kB time=05:55:40.44 bitrate=6328.4kbits/s speed= 105x    frame=1283179 fps=6301 q=-1.0 size=16531456kB time=05:56:26.46 bitrate=6332.3kbits/s speed= 105x    frame=1285727 fps=6298 q=-1.0 size=16573440kB time=05:57:08.93 bitrate=6335.8kbits/s speed= 105x    frame=1288458 fps=6296 q=-1.0 size=16618752kB time=05:57:54.45 bitrate=6339.7kbits/s speed= 105x    frame=1291203 fps=6294 q=-1.0 size=16663040kB time=05:58:40.19 bitrate=6343.0kbits/s speed= 105x    frame=1293836 fps=6292 q=-1.0 size=16706816kB time=05:59:24.08 bitrate=6346.8kbits/s speed= 105x    frame=1296500 fps=6290 q=-1.0 size=16751104kB time=06:00:08.49 bitrate=6350.5kbits/s speed= 105x    frame=1299031 fps=6287 q=-1.0 size=16792832kB time=06:00:50.67 bitrate=6353.9kbits/s speed= 105x    frame=1301480 fps=6283 q=-1.0 size=16833280kB time=06:01:31.48 bitrate=6357.3kbits/s speed= 105x    frame=1304176 fps=6281 q=-1.0 size=16878080kB time=06:02:16.41 bitrate=6361.0kbits/s speed= 105x    frame=1306553 fps=6277 q=-1.0 size=16917504kB time=06:02:56.03 bitrate=6364.3kbits/s speed= 105x    frame=1309089 fps=6275 q=-1.0 size=16959488kB time=06:03:38.29 bitrate=6367.7kbits/s speed= 105x    frame=1311748 fps=6272 q=-1.0 size=17003520kB time=06:04:22.61 bitrate=6371.3kbits/s speed= 105x    frame=1314309 fps=6269 q=-1.0 size=17046016kB time=06:05:05.29 bitrate=6374.8kbits/s speed= 104x    frame=1316946 fps=6267 q=-1.0 size=17089536kB time=06:05:49.25 bitrate=6378.2kbits/s speed= 104x    frame=1319606 fps=6265 q=-1.0 size=17133568kB time=06:06:33.58 bitrate=6381.8kbits/s speed= 104x    frame=1321860 fps=6261 q=-1.0 size=17170944kB time=06:07:11.14 bitrate=6384.8kbits/s speed= 104x    frame=1324622 fps=6259 q=-1.0 size=17215488kB time=06:07:57.18 bitrate=6388.0kbits/s speed= 104x    frame=1327168 fps=6256 q=-1.0 size=17257728kB time=06:08:39.61 bitrate=6391.4kbits/s speed= 104x    frame=1329767 fps=6254 q=-1.0 size=17300992kB time=06:09:22.93 bitrate=6394.9kbits/s speed= 104x    frame=1332423 fps=6251 q=-1.0 size=17344768kB time=06:10:07.19 bitrate=6398.3kbits/s speed= 104x    frame=1334906 fps=6248 q=-1.0 size=17385728kB time=06:10:48.58 bitrate=6401.5kbits/s speed= 104x    frame=1337504 fps=6246 q=-1.0 size=17428992kB time=06:11:31.88 bitrate=6404.9kbits/s speed= 104x    frame=1340146 fps=6244 q=-1.0 size=17472768kB time=06:12:15.91 bitrate=6408.4kbits/s speed= 104x    frame=1342514 fps=6240 q=-1.0 size=17512192kB time=06:12:55.38 bitrate=6411.5kbits/s speed= 104x    frame=1345321 fps=6239 q=-1.0 size=17558528kB time=06:13:42.16 bitrate=6415.1kbits/s speed= 104x    frame=1348282 fps=6238 q=-1.0 size=17607680kB time=06:14:31.51 bitrate=6418.9kbits/s speed= 104x    frame=1351226 fps=6237 q=-1.0 size=17656320kB time=06:15:20.58 bitrate=6422.6kbits/s speed= 104x    frame=1354003 fps=6236 q=-1.0 size=17702400kB time=06:16:06.87 bitrate=6426.1kbits/s speed= 104x    frame=1356852 fps=6234 q=-1.0 size=17749504kB time=06:16:54.34 bitrate=6429.7kbits/s speed= 104x    frame=1359537 fps=6232 q=-1.0 size=17794048kB time=06:17:39.09 bitrate=6433.1kbits/s speed= 104x    frame=1362221 fps=6230 q=-1.0 size=17837056kB time=06:18:23.83 bitrate=6436.0kbits/s speed= 104x    frame=1364573 fps=6227 q=-1.0 size=17876224kB time=06:19:03.04 bitrate=6439.0kbits/s speed= 104x    frame=1367227 fps=6225 q=-1.0 size=17920256kB time=06:19:47.26 bitrate=6442.3kbits/s speed= 104x    frame=1369850 fps=6223 q=-1.0 size=17963776kB time=06:20:30.98 bitrate=6445.6kbits/s speed= 104x    frame=1372438 fps=6220 q=-1.0 size=18006272kB time=06:21:14.11 bitrate=6448.7kbits/s speed= 104x    frame=1375019 fps=6218 q=-1.0 size=18049280kB time=06:21:57.13 bitrate=6451.9kbits/s speed= 104x    frame=1377603 fps=6215 q=-1.0 size=18092032kB time=06:22:40.19 bitrate=6455.1kbits/s speed= 104x    frame=1380037 fps=6212 q=-1.0 size=18132480kB time=06:23:20.76 bitrate=6458.1kbits/s speed= 104x    frame=1382698 fps=6210 q=-1.0 size=18176512kB time=06:24:05.11 bitrate=6461.3kbits/s speed= 104x    frame=1385121 fps=6207 q=-1.0 size=18216448kB time=06:24:45.50 bitrate=6464.2kbits/s speed= 103x    frame=1387661 fps=6205 q=-1.0 size=18258688kB time=06:25:27.83 bitrate=6467.3kbits/s speed= 103x    frame=1390294 fps=6203 q=-1.0 size=18301184kB time=06:26:11.71 bitrate=6470.1kbits/s speed= 103x    frame=1392696 fps=6200 q=-1.0 size=18340864kB time=06:26:51.75 bitrate=6472.9kbits/s speed= 103x    frame=1395227 fps=6197 q=-1.0 size=18382848kB time=06:27:33.93 bitrate=6476.0kbits/s speed= 103x    frame=1397907 fps=6195 q=-1.0 size=18427136kB time=06:28:18.60 bitrate=6479.1kbits/s speed= 103x    frame=1400275 fps=6192 q=-1.0 size=18466560kB time=06:28:58.07 bitrate=6482.0kbits/s speed= 103x    frame=1402932 fps=6190 q=-1.0 size=18510592kB time=06:29:42.36 bitrate=6485.2kbits/s speed= 103x    frame=1405372 fps=6187 q=-1.0 size=18551040kB time=06:30:23.01 bitrate=6488.1kbits/s speed= 103x    frame=1407940 fps=6185 q=-1.0 size=18593536kB time=06:31:05.81 bitrate=6491.1kbits/s speed= 103x    frame=1410495 fps=6182 q=-1.0 size=18635776kB time=06:31:48.39 bitrate=6494.0kbits/s speed= 103x    frame=1413012 fps=6180 q=-1.0 size=18677760kB time=06:32:30.34 bitrate=6497.1kbits/s speed= 103x    frame=1415636 fps=6178 q=-1.0 size=18721024kB time=06:33:14.09 bitrate=6500.0kbits/s speed= 103x    frame=1418253 fps=6176 q=-1.0 size=18764544kB time=06:33:57.70 bitrate=6503.1kbits/s speed= 103x    frame=1420639 fps=6173 q=-1.0 size=18803712kB time=06:34:37.46 bitrate=6505.8kbits/s speed= 103x    frame=1423347 fps=6171 q=-1.0 size=18848768kB time=06:35:22.60 bitrate=6508.9kbits/s speed= 103x    frame=1426011 fps=6169 q=-1.0 size=18891008kB time=06:36:07.00 bitrate=6511.3kbits/s speed= 103x    frame=1428502 fps=6168 q=-1.0 Lsize=18926310kB time=06:36:48.51 bitrate=6512.1kbits/s speed= 103x    
video:18494686kB audio:383794kB subtitle:0kB other streams:0kB global headers:0kB muxing overhead: 0.253354%
